<?xml version="1.0" standalone="no"?>
<!DOCTYPE svg PUBLIC "-//W3C//DTD SVG 20010904//EN"
 "http://www.w3.org/TR/2001/REC-SVG-20010904/DTD/svg10.dtd">
<svg version="1.0" xmlns="http://www.w3.org/2000/svg"
 width="512.000000pt" height="512.000000pt" viewBox="0 0 512.000000 512.000000"
 preserveAspectRatio="xMidYMid meet">

<g transform="translate(0.000000,512.000000) scale(0.100000,-0.100000)"
fill="#000000" stroke="none">
<path d="M735 4036 c-91 -42 -147 -129 -165 -257 -26 -179 51 -381 199 -530
244 -243 536 -175 580 136 30 208 -84 462 -264 590 -121 86 -249 109 -350 61z"/>
<path d="M1954 4046 c-65 -21 -144 -70 -198 -123 -59 -58 -138 -176 -159 -238
l-16 -45 33 25 c68 52 94 55 422 55 l304 0 0 28 c0 52 -30 147 -62 193 -17 25
-53 61 -81 80 -45 30 -58 34 -126 36 -43 2 -94 -3 -117 -11z"/>
<path d="M1762 3550 c-18 -4 -45 -18 -59 -31 -56 -53 -53 -9 -53 -927 l0 -849
23 -34 c36 -54 77 -69 188 -69 83 0 100 3 129 23 74 50 75 52 78 311 l3 233
227 6 c294 8 405 31 546 112 95 54 101 62 125 156 26 106 76 206 140 287 l51
62 0 83 c0 174 -58 315 -180 438 -119 121 -258 180 -465 199 -120 11 -706 11
-753 0z m775 -394 c124 -39 195 -136 196 -269 1 -137 -68 -232 -200 -276 -55
-19 -86 -21 -263 -21 l-200 0 0 296 0 297 208 -6 c149 -4 222 -10 259 -21z"/>
<path d="M175 3382 c-124 -59 -190 -213 -168 -391 37 -290 264 -541 493 -545
89 -1 148 23 203 84 195 217 47 688 -263 837 -74 36 -205 43 -265 15z"/>
<path d="M4523 3230 c-60 -31 -73 -65 -73 -198 l0 -111 -52 -3 c-47 -3 -55 -7
-75 -37 -19 -28 -23 -47 -23 -111 0 -64 4 -83 23 -111 20 -30 28 -34 75 -37
l52 -3 0 -341 c0 -417 8 -463 96 -550 51 -52 129 -79 239 -85 131 -8 199 9
251 61 32 32 44 54 54 97 24 106 -10 177 -77 164 -58 -11 -139 -7 -161 6 -39
24 -42 50 -42 354 l0 295 105 0 105 0 40 40 c39 39 40 41 40 111 0 70 -1 72
-39 110 l-39 39 -105 0 -105 0 -4 118 c-5 168 -33 203 -168 209 -62 4 -82 1
-117 -17z"/>
<path d="M1366 3045 c-273 -75 -502 -371 -483 -622 5 -64 3 -73 -11 -73 -34 0
-118 -48 -151 -85 -91 -104 -136 -318 -95 -455 54 -182 224 -287 421 -259 99
14 283 69 446 134 16 7 17 49 17 691 l0 684 -47 -1 c-27 0 -70 -7 -97 -14z"/>
<path d="M3528 2931 c-228 -62 -402 -244 -453 -476 -22 -98 -17 -295 9 -370
56 -159 166 -296 291 -362 196 -102 447 -110 639 -18 143 68 188 133 150 212
-44 89 -134 106 -257 51 -67 -31 -79 -33 -182 -33 -103 0 -113 2 -164 30 -29
16 -66 45 -82 65 -32 38 -71 131 -61 142 4 4 176 57 382 118 206 61 386 119
400 129 34 25 70 79 70 107 0 42 -49 147 -100 216 -76 101 -185 170 -308 197
-81 17 -256 13 -334 -8z m264 -285 c33 -14 114 -93 105 -102 -7 -8 -481 -143
-485 -139 -10 9 21 114 43 147 26 40 91 82 158 104 48 16 127 11 179 -10z"/>
<path d="M3622 1495 c-145 -74 -170 -275 -48 -382 47 -42 96 -57 171 -50 226
18 283 329 81 434 -17 9 -57 18 -91 20 -51 4 -68 0 -113 -22z m179 -67 c45
-25 79 -85 79 -139 0 -95 -92 -179 -180 -164 -77 13 -130 79 -130 162 0 130
120 204 231 141z"/>
<path d="M3050 1285 l0 -225 35 0 35 0 0 100 0 100 110 0 110 0 0 -100 0 -100
35 0 35 0 0 225 0 225 -35 0 -35 0 0 -95 0 -95 -110 0 -110 0 0 95 0 95 -35 0
-35 0 0 -225z"/>
<path d="M3970 1480 l0 -29 73 -3 72 -3 3 -192 2 -193 35 0 35 0 0 195 0 195
70 0 70 0 0 30 0 30 -180 0 -180 0 0 -30z"/>
<path d="M4400 1285 l0 -225 165 0 165 0 0 35 0 35 -130 0 -130 0 0 65 0 65
115 0 115 0 0 30 0 30 -115 0 -115 0 0 65 0 65 130 0 130 0 0 30 0 30 -165 0
-165 0 0 -225z"/>
<path d="M4810 1285 l0 -225 155 0 155 0 0 35 0 35 -120 0 -120 0 0 190 0 190
-35 0 -35 0 0 -225z"/>
</g>
</svg>
